<svg xmlns="http://www.w3.org/2000/svg"  viewBox="0 0 48 48" width="96px" height="96px"><path fill="#f44336" d="M46,36c0,1.7-1.3,3-3,3H5c-1.7,0-3-1.3-3-3V12c0-1.7,1.3-3,3-3h38c1.7,0,3,1.3,3,3V36z"/><path fill="#ffd600" d="M15,9h2v30h-2V9z"/><path fill="#ffd600" d="M2,23h44v2H2V23z"/><path fill="#b71c1c" d="M28,33h10v2H28V33z"/><path fill="#ffd600" d="M12,25c-2.8,0-5-2.2-5-5s2.2-5,5-5s5,2.2,5,5h-2c0-1.7-1.3-3-3-3s-3,1.3-3,3s1.3,3,3,3V25z"/><path fill="#ffd600" d="M20,25v-2c1.7,0,3-1.3,3-3s-1.3-3-3-3s-3,1.3-3,3h-2c0-2.8,2.2-5,5-5s5,2.2,5,5S22.8,25,20,25z"/><path fill="#ffd600" d="M18.5 22.4H20.5V31.599999999999998H18.5z" transform="rotate(-49.4 19.5 27)"/><path fill="#ffd600" d="M7.9 26H17.1V28H7.9z" transform="rotate(-40.624 12.5 26.999)"/><path fill="#b71c1c" d="M28,29h14v2H28V29z"/></svg>