<svg xmlns="http://www.w3.org/2000/svg"  viewBox="0 0 48 48" width="96px" height="96px"><path fill="#4A148C" d="M40.641 17.032c-.103-.495-.209-.955-.318-1.393l-6.236 1.281c.108.351.241.736.382 1.16-.001-.005-.003-.012-.005-.017C34.66 18.656 34.863 19.307 35 20l.794-.133L41 19C40.887 18.295 40.767 17.643 40.641 17.032zM7.691 15.588c-.113.449-.221.937-.327 1.444l-.004 0C7.233 17.643 7.113 18.295 7 19l5.206.867L13 20c.136-.693.339-1.344.538-1.938h0c.159-.477.313-.914.426-1.295L7.691 15.588zM18.991 6C18.991 6 21 7 24 7s4.99-1 4.99-1v10h-10V6z"/><path fill="#AB47BC" d="M34.463,18.063l6.178-1.03c-0.947-4.583-2.227-6.618-3.184-7.574L37,9l-8-3c-0.378,0.605,0,5.001-5,5.001S19.378,6.605,19,6l-8,3l-0.458,0.458c-1.02,1.02-2.407,3.262-3.366,8.516c0.06-0.325,0.121-0.639,0.184-0.941l6.177,1.03c0.167-0.5,0.33-0.96,0.444-1.354L14,41h20l0.019-24.291c0.115,0.398,0.281,0.864,0.449,1.371C34.467,18.074,34.465,18.068,34.463,18.063z"/></svg>